<svg xmlns="http://www.w3.org/2000/svg" version="1.1" xmlns:xlink="http://www.w3.org/1999/xlink" width="106" height="106"><svg width="106" height="106" viewBox="0 0 106 106" fill="none" xmlns="http://www.w3.org/2000/svg">
<path d="M105.269 84.0653V60.7347C105.269 55.9496 104.55 51.3628 103.212 47.024C99.7425 35.8173 92.1346 26.4207 82.1723 20.6438C75.3326 16.6769 67.4024 14.3959 58.9519 14.3959H35.7314V36.2388H59.5466C64.1065 36.338 68.3194 37.7016 71.9375 39.9578C76.3734 42.7347 79.8428 46.8752 81.7758 51.8091C82.8662 54.5859 83.4858 57.6107 83.4858 60.7595H83.5353V84.0901H105.294L105.269 84.0653Z" fill="#E63223"></path>
<path d="M59.6211 74.2223C67.4361 74.2223 73.7714 67.884 73.7714 60.0653C73.7714 52.2466 67.4361 45.9083 59.6211 45.9083C51.806 45.9083 45.4707 52.2466 45.4707 60.0653C45.4707 67.884 51.806 74.2223 59.6211 74.2223Z" fill="#00416E"></path>
<path d="M60.2158 84.0653V84.0157C57.0437 84.0157 54.0451 83.3958 51.2696 82.3049C46.338 80.3711 42.1995 76.9 39.4239 72.462C37.1688 68.8421 35.8058 64.6025 35.7067 60.0653V0.809082H13.874V59.4702C13.874 67.9496 16.1539 75.8835 20.119 82.7016C25.8931 92.6686 35.2854 100.28 46.4867 103.751C50.8235 105.09 55.4329 105.809 60.191 105.809H83.5106V84.0653H60.191H60.2158Z" fill="#00416E"></path>
<path d="M13.8741 14.3711H0.293701V36.214H13.8741V14.3711Z" fill="#E63223"></path>
</svg><style>@media (prefers-color-scheme: light) { :root { filter: none; } }
@media (prefers-color-scheme: dark) { :root { filter: none; } }
</style></svg>